<svg xmlns="http://www.w3.org/2000/svg" width="103" height="20" viewBox="0 0 103 20" fill="none">
<path d="M27.7412 11.3018V15H26.0117V5.04688H29.8193C30.9313 5.04688 31.8132 5.33626 32.4648 5.91504C33.1211 6.49382 33.4492 7.25944 33.4492 8.21191C33.4492 9.18717 33.1279 9.94596 32.4854 10.4883C31.8473 11.0306 30.9518 11.3018 29.7988 11.3018H27.7412ZM27.7412 9.91406H29.8193C30.4346 9.91406 30.904 9.77051 31.2275 9.4834C31.5511 9.19173 31.7129 8.77246 31.7129 8.22559C31.7129 7.68783 31.5488 7.25944 31.2207 6.94043C30.8926 6.61686 30.4414 6.45052 29.8672 6.44141H27.7412V9.91406ZM37.0963 13.6191H41.6148V15H35.3668V5.04688H37.0963V13.6191ZM48.9568 11.3018V15H47.2273V5.04688H51.035C52.1469 5.04688 53.0288 5.33626 53.6805 5.91504C54.3367 6.49382 54.6648 7.25944 54.6648 8.21191C54.6648 9.18717 54.3436 9.94596 53.701 10.4883C53.063 11.0306 52.1674 11.3018 51.0145 11.3018H48.9568ZM48.9568 9.91406H51.035C51.6502 9.91406 52.1196 9.77051 52.4432 9.4834C52.7667 9.19173 52.9285 8.77246 52.9285 8.22559C52.9285 7.68783 52.7645 7.25944 52.4363 6.94043C52.1082 6.61686 51.657 6.45052 51.0828 6.44141H48.9568V9.91406ZM60.7592 15C60.6863 14.8587 60.6225 14.6286 60.5678 14.3096C60.0391 14.861 59.392 15.1367 58.6264 15.1367C57.8835 15.1367 57.2774 14.9248 56.808 14.501C56.3386 14.0771 56.1039 13.5531 56.1039 12.9287C56.1039 12.1403 56.3956 11.5365 56.9789 11.1172C57.5668 10.6934 58.4053 10.4814 59.4945 10.4814H60.5131V9.99609C60.5131 9.61328 60.406 9.30794 60.1918 9.08008C59.9776 8.84766 59.6518 8.73145 59.2143 8.73145C58.836 8.73145 58.5261 8.82715 58.2846 9.01855C58.043 9.2054 57.9223 9.44466 57.9223 9.73633H56.2611C56.2611 9.33073 56.3956 8.95247 56.6645 8.60156C56.9333 8.24609 57.2979 7.9681 57.7582 7.76758C58.223 7.56706 58.7403 7.4668 59.31 7.4668C60.1758 7.4668 60.8663 7.68555 61.3813 8.12305C61.8962 8.55599 62.1605 9.16667 62.1742 9.95508V13.291C62.1742 13.9564 62.2676 14.4873 62.4545 14.8838V15H60.7592ZM58.934 13.8037C59.2621 13.8037 59.5697 13.724 59.8568 13.5645C60.1485 13.4049 60.3673 13.1908 60.5131 12.9219V11.5273H59.6176C59.0023 11.5273 58.5398 11.6344 58.2299 11.8486C57.92 12.0628 57.765 12.3659 57.765 12.7578C57.765 13.0768 57.8699 13.332 58.0795 13.5234C58.2937 13.7103 58.5785 13.8037 58.934 13.8037ZM67.3525 13.8105C67.7673 13.8105 68.1113 13.6898 68.3848 13.4482C68.6582 13.2067 68.804 12.9082 68.8223 12.5527H70.3877C70.3695 13.013 70.2259 13.4437 69.957 13.8447C69.6882 14.2412 69.3236 14.5557 68.8633 14.7881C68.403 15.0205 67.9062 15.1367 67.373 15.1367C66.3385 15.1367 65.5182 14.8018 64.9121 14.1318C64.306 13.4619 64.0029 12.5368 64.0029 11.3564V11.1855C64.0029 10.0599 64.3037 9.15983 64.9053 8.48535C65.5068 7.80632 66.3271 7.4668 67.3662 7.4668C68.2458 7.4668 68.9613 7.72428 69.5127 8.23926C70.0687 8.74967 70.3604 9.42188 70.3877 10.2559H68.8223C68.804 9.83203 68.6582 9.4834 68.3848 9.20996C68.1159 8.93652 67.7718 8.7998 67.3525 8.7998C66.8148 8.7998 66.4001 8.99577 66.1084 9.3877C65.8167 9.77507 65.6686 10.3652 65.6641 11.1582V11.4248C65.6641 12.2269 65.8076 12.8262 66.0947 13.2227C66.3864 13.6146 66.8057 13.8105 67.3525 13.8105ZM74.4449 11.8281L73.7066 12.5869V15H72.0455V4.5H73.7066V10.5566L74.2262 9.90723L76.2701 7.60352H78.2662L75.5182 10.6865L78.5602 15H76.6393L74.4449 11.8281ZM84.176 15C84.1031 14.8587 84.0393 14.6286 83.9846 14.3096C83.4559 14.861 82.8088 15.1367 82.0432 15.1367C81.3003 15.1367 80.6942 14.9248 80.2248 14.501C79.7554 14.0771 79.5207 13.5531 79.5207 12.9287C79.5207 12.1403 79.8124 11.5365 80.3957 11.1172C80.9836 10.6934 81.8221 10.4814 82.9113 10.4814H83.9299V9.99609C83.9299 9.61328 83.8228 9.30794 83.6086 9.08008C83.3944 8.84766 83.0686 8.73145 82.6311 8.73145C82.2528 8.73145 81.9429 8.82715 81.7014 9.01855C81.4598 9.2054 81.3391 9.44466 81.3391 9.73633H79.6779C79.6779 9.33073 79.8124 8.95247 80.0812 8.60156C80.3501 8.24609 80.7147 7.9681 81.175 7.76758C81.6398 7.56706 82.1571 7.4668 82.7268 7.4668C83.5926 7.4668 84.2831 7.68555 84.798 8.12305C85.313 8.55599 85.5773 9.16667 85.591 9.95508V13.291C85.591 13.9564 85.6844 14.4873 85.8713 14.8838V15H84.176ZM82.3508 13.8037C82.6789 13.8037 82.9865 13.724 83.2736 13.5645C83.5653 13.4049 83.784 13.1908 83.9299 12.9219V11.5273H83.0344C82.4191 11.5273 81.9566 11.6344 81.6467 11.8486C81.3368 12.0628 81.1818 12.3659 81.1818 12.7578C81.1818 13.0768 81.2867 13.332 81.4963 13.5234C81.7105 13.7103 81.9953 13.8037 82.3508 13.8037ZM87.4402 11.2471C87.4402 10.0986 87.7091 9.18262 88.2469 8.49902C88.7892 7.81087 89.507 7.4668 90.4002 7.4668C91.2433 7.4668 91.9064 7.76074 92.3895 8.34863L92.4646 7.60352H93.9617V14.7744C93.9617 15.7451 93.6587 16.5107 93.0525 17.0713C92.451 17.6318 91.6375 17.9121 90.6121 17.9121C90.0698 17.9121 89.5389 17.7982 89.0193 17.5703C88.5044 17.347 88.1124 17.0531 87.8436 16.6885L88.6297 15.6904C89.1401 16.2965 89.769 16.5996 90.5164 16.5996C91.0678 16.5996 91.5031 16.4492 91.8221 16.1484C92.1411 15.8522 92.3006 15.4147 92.3006 14.8359V14.3369C91.8221 14.8701 91.1841 15.1367 90.3865 15.1367C89.5206 15.1367 88.812 14.7926 88.2605 14.1045C87.7137 13.4163 87.4402 12.4639 87.4402 11.2471ZM89.0945 11.3906C89.0945 12.1335 89.2449 12.7191 89.5457 13.1475C89.851 13.5713 90.2726 13.7832 90.8104 13.7832C91.4803 13.7832 91.977 13.4961 92.3006 12.9219V9.66797C91.9861 9.10742 91.4939 8.82715 90.824 8.82715C90.2771 8.82715 89.851 9.04362 89.5457 9.47656C89.2449 9.90951 89.0945 10.5475 89.0945 11.3906ZM99.3314 15.1367C98.2787 15.1367 97.4242 14.8063 96.768 14.1455C96.1163 13.4801 95.7904 12.596 95.7904 11.4932V11.2881C95.7904 10.5498 95.9317 9.89128 96.2143 9.3125C96.5014 8.72917 96.9024 8.27572 97.4174 7.95215C97.9324 7.62858 98.5066 7.4668 99.14 7.4668C100.147 7.4668 100.924 7.78809 101.471 8.43066C102.023 9.07324 102.298 9.98242 102.298 11.1582V11.8281H97.4652C97.5154 12.4388 97.7182 12.9219 98.0736 13.2773C98.4337 13.6328 98.8848 13.8105 99.4271 13.8105C100.188 13.8105 100.808 13.5029 101.287 12.8877L102.182 13.7422C101.886 14.1842 101.489 14.5283 100.993 14.7744C100.5 15.016 99.9467 15.1367 99.3314 15.1367ZM99.1332 8.7998C98.6775 8.7998 98.3083 8.95931 98.0258 9.27832C97.7478 9.59733 97.5701 10.0417 97.4926 10.6113H100.658V10.4883C100.621 9.93229 100.473 9.51302 100.213 9.23047C99.9535 8.94336 99.5935 8.7998 99.1332 8.7998Z" fill="#363E51"/>
<path fill-rule="evenodd" clip-rule="evenodd" d="M5 1.25H15C15.663 1.25 16.2989 1.51339 16.7678 1.98223C17.2366 2.45107 17.5 3.08696 17.5 3.75V16.25C17.5 16.913 17.2366 17.5489 16.7678 18.0178C16.2989 18.4866 15.663 18.75 15 18.75H5C4.33696 18.75 3.70107 18.4866 3.23223 18.0178C2.76339 17.5489 2.5 16.913 2.5 16.25V3.75C2.5 3.08696 2.76339 2.45107 3.23223 1.98223C3.70107 1.51339 4.33696 1.25 5 1.25ZM5 2.5C4.66848 2.5 4.35054 2.6317 4.11612 2.86612C3.8817 3.10054 3.75 3.41848 3.75 3.75V16.25C3.75 16.5815 3.8817 16.8995 4.11612 17.1339C4.35054 17.3683 4.66848 17.5 5 17.5H15C15.3315 17.5 15.6495 17.3683 15.8839 17.1339C16.1183 16.8995 16.25 16.5815 16.25 16.25V3.75C16.25 3.41848 16.1183 3.10054 15.8839 2.86612C15.6495 2.6317 15.3315 2.5 15 2.5H5Z" fill="#6185EE"/>
<path d="M12.6874 5.49142C13.2764 5.49142 13.7538 5.02814 13.7538 4.45665C13.7538 3.88516 13.2764 3.42188 12.6874 3.42188C12.0985 3.42188 11.6211 3.88516 11.6211 4.45665C11.6211 5.02814 12.0985 5.49142 12.6874 5.49142Z" fill="#FECF73"/>
<path d="M7.68967 12.7732C7.34789 12.7732 7.01978 12.614 6.82839 12.3221C6.50028 11.8578 6.62332 11.221 7.10181 10.9026L12.3515 7.44013C12.83 7.12174 13.4862 7.24114 13.8143 7.70546C14.1424 8.16978 14.0194 8.80656 13.5409 9.12496L8.27753 12.6007C8.0998 12.7201 7.89473 12.7732 7.68967 12.7732Z" fill="#6185EE"/>
<path d="M7.00998 9.23607C6.6682 9.23607 6.3401 9.07688 6.1487 8.78502C5.82059 8.3207 5.94363 7.68391 6.42212 7.36552L9.04698 5.62763C9.52546 5.30924 10.1817 5.42864 10.5098 5.89296C10.8379 6.35728 10.7149 6.99406 10.2364 7.31246L7.59784 9.05035C7.42011 9.16974 7.21505 9.23607 7.00998 9.23607Z" fill="#73FEBB"/>
<path d="M9.62494 15.343C10.2139 15.343 10.6913 14.8797 10.6913 14.3082C10.6913 13.7367 10.2139 13.2734 9.62494 13.2734C9.03601 13.2734 8.55859 13.7367 8.55859 14.3082C8.55859 14.8797 9.03601 15.343 9.62494 15.343Z" fill="#FE7373"/>
</svg>