<svg id="new_design" data-name="new design" xmlns="http://www.w3.org/2000/svg" viewBox="0 0 124.72 124.72"><defs><style>.cls-1{fill:#fff;stroke:#fff;stroke-miterlimit:10;}</style></defs><circle class="cls-1" cx="97.46" cy="59.18" r="12.45"/><path class="cls-1" d="M62.55,68.05A19.18,19.18,0,0,0,50.93,72L39.19,63.84a12.34,12.34,0,0,0,.14-8.94l14.59-9.73A11.3,11.3,0,1,0,53.8,30.7L46.31,27a8.43,8.43,0,0,0,.16-1.6,7.78,7.78,0,1,0-2.17,5.39l7.36,4.07a11.25,11.25,0,0,0-.42,3,11.47,11.47,0,0,0,.23,2.29L35.14,49.25A12.45,12.45,0,1,0,34,69.86L45.15,79a19.3,19.3,0,1,0,17.4-11Z"/></svg>