<svg width="10" height="10" viewBox="0 0 10 10" fill="none" xmlns="http://www.w3.org/2000/svg">
<path d="M6.25 2.8125H7.6616C7.67396 2.8125 7.68605 2.80883 7.69633 2.80197C7.70661 2.7951 7.71462 2.78534 7.71935 2.77392C7.72408 2.7625 7.72531 2.74993 7.7229 2.7378C7.72049 2.72568 7.71454 2.71454 7.7058 2.7058L6.0442 1.04418C6.03546 1.03544 6.02432 1.02948 6.0122 1.02707C6.00007 1.02466 5.9875 1.0259 5.97608 1.03063C5.96466 1.03536 5.9549 1.04337 5.94803 1.05365C5.94116 1.06393 5.9375 1.07601 5.9375 1.08837V2.5C5.9375 2.58288 5.97042 2.66237 6.02903 2.72097C6.08763 2.77958 6.16712 2.8125 6.25 2.8125V2.8125Z" fill="black"/>
<path d="M7.8125 3.4375H6.25C6.00136 3.4375 5.7629 3.33873 5.58709 3.16291C5.41127 2.9871 5.3125 2.74864 5.3125 2.5V0.9383C5.31262 0.89733 5.30466 0.856738 5.28908 0.818848C5.2735 0.780958 5.25059 0.746513 5.22168 0.717486C5.19276 0.688459 5.15841 0.66542 5.12058 0.649687C5.08275 0.633955 5.04219 0.625837 5.00122 0.6258C4.26924 0.625419 2.5 0.625 2.5 0.625C2.33424 0.625 2.17527 0.690848 2.05806 0.808058C1.94085 0.925268 1.875 1.08424 1.875 1.25V8.75C1.875 8.91576 1.94085 9.07473 2.05806 9.19194C2.17527 9.30915 2.33424 9.375 2.5 9.375H7.5C7.66576 9.375 7.82473 9.30915 7.94194 9.19194C8.05915 9.07473 8.125 8.91576 8.125 8.75V3.75C8.125 3.66712 8.09208 3.58763 8.03347 3.52903C7.97487 3.47042 7.89538 3.4375 7.8125 3.4375Z" fill="black"/>
</svg>
