<svg xmlns="http://www.w3.org/2000/svg" width="10" height="8" viewBox="0 0 10 8" fill="none">
  <path fill-rule="evenodd" clip-rule="evenodd" d="M9.5 4.00027C9.5 4.14945 9.44074 4.29252 9.33525 4.39801C9.22976 4.5035 9.08668 4.56277 8.9375 4.56277L2.42037 4.56277L4.83575 6.97702C4.94137 7.08264 5.00071 7.22589 5.00071 7.37527C5.00071 7.52464 4.94137 7.66789 4.83575 7.77352C4.73013 7.87914 4.58687 7.93848 4.4375 7.93848C4.28813 7.93848 4.14487 7.87914 4.03925 7.77352L0.664249 4.39852C0.611866 4.34627 0.570306 4.28419 0.541948 4.21585C0.513591 4.14752 0.498994 4.07425 0.498994 4.00027C0.498994 3.92628 0.513591 3.85302 0.541948 3.78468C0.570305 3.71634 0.611866 3.65427 0.664249 3.60202L4.03925 0.227016C4.14487 0.121394 4.28813 0.062056 4.4375 0.062056C4.58687 0.062056 4.73013 0.121394 4.83575 0.227016C4.94137 0.332639 5.00071 0.475893 5.00071 0.625266C5.00071 0.774639 4.94137 0.917894 4.83575 1.02352L2.42037 3.43777L8.9375 3.43777C9.08668 3.43777 9.22976 3.49703 9.33525 3.60252C9.44074 3.70801 9.5 3.85108 9.5 4.00027Z" fill="#fff"/>
</svg>