<svg width="18" height="18" viewBox="0 0 18 18" fill="none" xmlns="http://www.w3.org/2000/svg">
  <path fill-rule="evenodd" clip-rule="evenodd" d="M1.85178 5.22678C1.90403 5.17439 1.9661 5.13283 2.03444 5.10448C2.10278 5.07612 2.17604 5.06152 2.25003 5.06152C2.32402 5.06152 2.39728 5.07612 2.46562 5.10448C2.53396 5.13283 2.59603 5.17439 2.64828 5.22678L9.00003 11.5797L15.3518 5.22678C15.4041 5.17448 15.4662 5.13299 15.5345 5.10469C15.6028 5.07639 15.6761 5.06182 15.75 5.06182C15.824 5.06182 15.8972 5.07639 15.9656 5.10469C16.0339 5.13299 16.096 5.17448 16.1483 5.22678C16.2006 5.27908 16.2421 5.34117 16.2704 5.4095C16.2987 5.47783 16.3132 5.55107 16.3132 5.62503C16.3132 5.69899 16.2987 5.77223 16.2704 5.84056C16.2421 5.90889 16.2006 5.97098 16.1483 6.02328L9.39828 12.7733C9.34603 12.8257 9.28395 12.8672 9.21562 12.8956C9.14728 12.9239 9.07402 12.9385 9.00003 12.9385C8.92604 12.9385 8.85278 12.9239 8.78444 12.8956C8.7161 12.8672 8.65403 12.8257 8.60178 12.7733L1.85178 6.02328C1.7994 5.97103 1.75783 5.90895 1.72948 5.84062C1.70112 5.77228 1.68652 5.69902 1.68652 5.62503C1.68652 5.55104 1.70112 5.47778 1.72948 5.40944C1.75783 5.3411 1.7994 5.27903 1.85178 5.22678Z" fill="#fff"/>
</svg>
