<svg width="10" height="10" viewBox="0 0 10 10" fill="none" xmlns="http://www.w3.org/2000/svg">
<path d="M9.375 3.28125V7.5C9.375 7.74864 9.27623 7.9871 9.10041 8.16291C8.9246 8.33873 8.68614 8.4375 8.4375 8.4375H1.5625C1.31386 8.4375 1.0754 8.33873 0.899587 8.16291C0.723772 7.9871 0.625 7.74864 0.625 7.5V2.5C0.625 2.25136 0.723772 2.0129 0.899587 1.83709C1.0754 1.66127 1.31386 1.5625 1.5625 1.5625H3.125C3.36746 1.56266 3.60043 1.65674 3.775 1.825L4.3125 2.34375H8.4375C8.68614 2.34375 8.9246 2.44252 9.10041 2.61834C9.27623 2.79415 9.375 3.03261 9.375 3.28125Z" fill="black"/>
</svg>
