<svg width="20" height="20" viewBox="0 0 20 20" fill="none" xmlns="http://www.w3.org/2000/svg">
<path d="M9.26217 9.23102L9.2608 3.73886C9.2608 3.64184 9.2799 3.54577 9.31702 3.45613C9.35415 3.36649 9.40856 3.28504 9.47717 3.21643C9.54577 3.14782 9.62721 3.09339 9.71685 3.05626C9.80648 3.01912 9.90255 3.00001 9.99958 3C10.0966 2.99999 10.1927 3.0191 10.2823 3.05622C10.372 3.09335 10.4534 3.14776 10.522 3.21636C10.5906 3.28497 10.645 3.36641 10.6822 3.45604C10.7193 3.54568 10.7384 3.64175 10.7384 3.73877L10.7377 9.23093H10.7377L10.7377 9.26218H10.7384L10.769 9.26218V9.26217L16.2611 9.2608C16.3582 9.2608 16.4542 9.2799 16.5439 9.31702C16.6335 9.35415 16.715 9.40856 16.7836 9.47717C16.8522 9.54577 16.9066 9.62721 16.9437 9.71685C16.9809 9.80648 17 9.90255 17 9.99958C17 10.0966 16.9809 10.1927 16.9438 10.2823C16.9067 10.372 16.8522 10.4534 16.7836 10.522C16.715 10.5906 16.6336 10.645 16.544 10.6822C16.4543 10.7193 16.3582 10.7384 16.2612 10.7384L10.7691 10.7377V10.7377L10.7384 10.7377H10.7378L10.7378 10.769H10.7378L10.7392 16.2611C10.7392 16.3582 10.7201 16.4542 10.683 16.5439C10.6459 16.6335 10.5914 16.715 10.5228 16.7836C10.4542 16.8522 10.3728 16.9066 10.2832 16.9437C10.1935 16.9809 10.0974 17 10.0004 17C9.9034 17 9.80733 16.9809 9.71769 16.9438C9.62805 16.9067 9.5466 16.8522 9.47799 16.7836C9.40938 16.715 9.35495 16.6336 9.31782 16.544C9.28068 16.4543 9.26157 16.3582 9.26156 16.2612L9.26227 10.7691H9.26228L9.26227 10.7378L9.23102 10.7378V10.7378L3.73886 10.7392C3.64181 10.7393 3.54568 10.7203 3.45598 10.6832C3.36629 10.6461 3.28479 10.5917 3.21615 10.5231C3.14752 10.4545 3.0931 10.373 3.05601 10.2833C3.01892 10.1936 2.99988 10.0975 3 10.0004L9.26217 9.23102ZM9.26217 9.23102H9.26218L9.26218 9.26227L9.23093 9.26228V9.26226L9.26217 9.23102ZM3.73874 9.29281H3.73877L9.26218 9.29352L9.29344 9.29352L9.29343 9.26226L9.29205 3.73886C9.29205 3.64594 9.31034 3.55393 9.3459 3.46808C9.38145 3.38224 9.43356 3.30423 9.49926 3.23852C9.56496 3.17281 9.64296 3.12069 9.72881 3.08513C9.81465 3.04956 9.90666 3.03126 9.99958 3.03125C10.0925 3.03124 10.1845 3.04954 10.2704 3.08509C10.3562 3.12065 10.4342 3.17276 10.4999 3.23846C10.5656 3.30416 10.6178 3.38216 10.6533 3.468C10.6889 3.55385 10.7072 3.64586 10.7072 3.73878L10.7065 9.26218L10.7065 9.29344L10.7377 9.29343L16.2611 9.29205C16.3541 9.29205 16.4461 9.31034 16.5319 9.34589C16.6178 9.38145 16.6958 9.43356 16.7615 9.49926C16.8272 9.56496 16.8793 9.64296 16.9149 9.72881C16.9504 9.81465 16.9687 9.90666 16.9688 9.99958C16.9688 10.0925 16.9505 10.1845 16.9149 10.2704C16.8794 10.3562 16.8272 10.4342 16.7615 10.4999C16.6958 10.5656 16.6178 10.6177 16.532 10.6533C16.4462 10.6889 16.3541 10.7072 16.2612 10.7072L10.7378 10.7065L10.7066 10.7065L10.7066 10.7377L10.7079 16.2611C10.708 16.3541 10.6897 16.4461 10.6541 16.5319C10.6186 16.6178 10.5664 16.6958 10.5007 16.7615C10.435 16.8272 10.357 16.8793 10.2712 16.9149C10.1853 16.9504 10.0933 16.9687 10.0004 16.9687C9.9075 16.9688 9.81549 16.9505 9.72964 16.9149C9.6438 16.8794 9.56579 16.8272 9.50008 16.7615C9.43437 16.6958 9.38225 16.6178 9.34669 16.532C9.31112 16.4461 9.29282 16.3541 9.29281 16.2612L9.29352 10.7378L9.29352 10.7066L9.26226 10.7066L3.73886 10.7079H3.73882C3.64588 10.7081 3.55382 10.6899 3.46792 10.6543C3.38202 10.6188 3.30398 10.5667 3.23825 10.501C3.17252 10.4353 3.12041 10.3572 3.08489 10.2714C3.04936 10.1855 3.03114 10.0934 3.03125 10.0005L3.03125 10.0004C3.03113 9.90743 3.04934 9.81538 3.08485 9.72948C3.12036 9.64358 3.17247 9.56554 3.23819 9.49981C3.30391 9.43408 3.38195 9.38196 3.46784 9.34644C3.55373 9.31092 3.64579 9.2927 3.73874 9.29281Z" fill="white" stroke="white" stroke-width="0.0625"/>
</svg>
