<svg width="18" height="18" viewBox="0 0 18 18" fill="none" xmlns="http://www.w3.org/2000/svg">
<path d="M8.15283 12.5325L2.75733 6.36525C2.12058 5.63963 2.63808 4.5 3.60445 4.5H14.3955C14.6117 4.49981 14.8235 4.56197 15.0053 4.67903C15.1872 4.79609 15.3314 4.96309 15.4208 5.16003C15.5102 5.35697 15.5409 5.5755 15.5093 5.78945C15.4777 6.0034 15.3851 6.20371 15.2426 6.36638L9.84708 12.5314C9.74148 12.6522 9.61126 12.7491 9.46515 12.8154C9.31904 12.8818 9.16042 12.9161 8.99995 12.9161C8.83948 12.9161 8.68086 12.8818 8.53475 12.8154C8.38864 12.7491 8.25842 12.6522 8.15283 12.5314V12.5325Z" fill="#505050"/>
</svg>
