<svg width="18" height="18" viewBox="0 0 18 18" fill="none" xmlns="http://www.w3.org/2000/svg">
<rect width="12" height="10" transform="translate(3 4)" fill="white"/>
<path d="M9 1C7.41775 1 5.87103 1.46919 4.55544 2.34824C3.23985 3.22729 2.21447 4.47672 1.60897 5.93853C1.00347 7.40034 0.84504 9.00887 1.15372 10.5607C1.4624 12.1126 2.22433 13.538 3.34315 14.6569C4.46197 15.7757 5.88743 16.5376 7.43928 16.8463C8.99113 17.155 10.5997 16.9965 12.0615 16.391C13.5233 15.7855 14.7727 14.7602 15.6518 13.4446C16.5308 12.129 17 10.5822 17 9C17 6.87827 16.1571 4.84344 14.6569 3.34315C13.1566 1.84285 11.1217 1 9 1ZM13.4107 6.76L7.704 12.4667C7.67729 12.4918 7.642 12.5058 7.60534 12.5058C7.56867 12.5058 7.53338 12.4918 7.50667 12.4667L4.58934 9.53333C4.49 9.4334 4.43425 9.29823 4.43425 9.15733C4.43425 9.01643 4.49 8.88126 4.58934 8.78133C4.68926 8.682 4.82444 8.62624 4.96534 8.62624C5.10624 8.62624 5.24141 8.682 5.34134 8.78133L7.50667 10.9467C7.53338 10.9718 7.56867 10.9858 7.60534 10.9858C7.642 10.9858 7.67729 10.9718 7.704 10.9467L12.6587 5.992C12.7586 5.89266 12.8938 5.83691 13.0347 5.83691C13.1756 5.83691 13.3107 5.89266 13.4107 5.992C13.4623 6.04175 13.5033 6.1014 13.5314 6.16738C13.5594 6.23335 13.5739 6.30431 13.5739 6.376C13.5739 6.44769 13.5594 6.51864 13.5314 6.58462C13.5033 6.6506 13.4623 6.71025 13.4107 6.76Z" fill="#6185EE"/>
</svg>
