<svg width="18" height="19" viewBox="0 0 18 19" fill="none" xmlns="http://www.w3.org/2000/svg">
<path d="M2.25 1.625C1.95163 1.625 1.66548 1.74353 1.4545 1.9545C1.24353 2.16548 1.125 2.45163 1.125 2.75V16.25C1.125 16.5484 1.24353 16.8345 1.4545 17.0455C1.66548 17.2565 1.95163 17.375 2.25 17.375H15.75C16.0484 17.375 16.3345 17.2565 16.5455 17.0455C16.7565 16.8345 16.875 16.5484 16.875 16.25V2.75C16.875 2.45163 16.7565 2.16548 16.5455 1.9545C16.3345 1.74353 16.0484 1.625 15.75 1.625H10.6875C10.3891 1.625 10.103 1.74353 9.892 1.9545C9.68103 2.16548 9.5625 2.45163 9.5625 2.75V10.9546L12.5392 7.97675C12.6449 7.87113 12.7881 7.81179 12.9375 7.81179C13.0869 7.81179 13.2301 7.87113 13.3358 7.97675C13.4414 8.08237 13.5007 8.22563 13.5007 8.375C13.5007 8.52437 13.4414 8.66763 13.3358 8.77325L9.39825 12.7108C9.346 12.7631 9.28393 12.8047 9.21559 12.8331C9.14725 12.8614 9.07399 12.876 9 12.876C8.92601 12.876 8.85275 12.8614 8.78441 12.8331C8.71607 12.8047 8.654 12.7631 8.60175 12.7108L4.66425 8.77325C4.61195 8.72095 4.57047 8.65886 4.54216 8.59053C4.51386 8.5222 4.49929 8.44896 4.49929 8.375C4.49929 8.30104 4.51386 8.2278 4.54216 8.15947C4.57047 8.09114 4.61195 8.02905 4.66425 7.97675C4.71655 7.92445 4.77864 7.88297 4.84697 7.85466C4.9153 7.82636 4.98854 7.81179 5.0625 7.81179C5.13646 7.81179 5.2097 7.82636 5.27803 7.85466C5.34636 7.88297 5.40845 7.92445 5.46075 7.97675L8.4375 10.9546V2.75C8.4375 2.15326 8.67455 1.58097 9.09651 1.15901C9.51847 0.737053 10.0908 0.5 10.6875 0.5L15.75 0.5C16.3467 0.5 16.919 0.737053 17.341 1.15901C17.7629 1.58097 18 2.15326 18 2.75V16.25C18 16.8467 17.7629 17.419 17.341 17.841C16.919 18.2629 16.3467 18.5 15.75 18.5H2.25C1.65326 18.5 1.08097 18.2629 0.65901 17.841C0.237053 17.419 0 16.8467 0 16.25V2.75C0 2.15326 0.237053 1.58097 0.65901 1.15901C1.08097 0.737053 1.65326 0.5 2.25 0.5L5.0625 0.5C5.21168 0.5 5.35476 0.559263 5.46025 0.664752C5.56574 0.770242 5.625 0.913316 5.625 1.0625C5.625 1.21168 5.56574 1.35476 5.46025 1.46025C5.35476 1.56574 5.21168 1.625 5.0625 1.625H2.25Z" fill="white"/>
</svg>
