<svg width="18" height="19" viewBox="0 0 18 19" fill="none" xmlns="http://www.w3.org/2000/svg">
<path fill-rule="evenodd" clip-rule="evenodd" d="M5.22776 16.6472C5.17537 16.595 5.13381 16.5329 5.10545 16.4646C5.0771 16.3962 5.0625 16.323 5.0625 16.249C5.0625 16.175 5.0771 16.1017 5.10545 16.0334C5.13381 15.9651 5.17537 15.903 5.22776 15.8507L11.5806 9.49899L5.22775 3.14724C5.17546 3.09495 5.13397 3.03286 5.10567 2.96453C5.07736 2.89619 5.06279 2.82296 5.06279 2.74899C5.06279 2.67503 5.07736 2.6018 5.10567 2.53346C5.13397 2.46513 5.17546 2.40304 5.22775 2.35074C5.28005 2.29845 5.34214 2.25696 5.41047 2.22866C5.4788 2.20035 5.55204 2.18578 5.626 2.18578C5.69997 2.18578 5.7732 2.20035 5.84154 2.22866C5.90987 2.25696 5.97196 2.29845 6.02425 2.35074L12.7743 9.10074C12.8266 9.153 12.8682 9.21507 12.8966 9.28341C12.9249 9.35175 12.9395 9.42501 12.9395 9.49899C12.9395 9.57298 12.9249 9.64624 12.8966 9.71458C12.8682 9.78292 12.8266 9.84499 12.7743 9.89724L6.02426 16.6472C5.972 16.6996 5.90993 16.7412 5.84159 16.7695C5.77325 16.7979 5.69999 16.8125 5.62601 16.8125C5.55202 16.8125 5.47876 16.7979 5.41042 16.7695C5.34208 16.7412 5.28001 16.6996 5.22776 16.6472Z" fill="white"/>
</svg>
