<svg width="18" height="18" viewBox="0 0 18 18" fill="none" xmlns="http://www.w3.org/2000/svg">
<path fill-rule="evenodd" clip-rule="evenodd" d="M14.5125 0.703125H3.4875C2.74913 0.703423 2.04109 0.996872 1.51898 1.51898C0.996872 2.04109 0.703423 2.74913 0.703125 3.4875V14.5125C0.703423 15.2509 0.996872 15.9589 1.51898 16.481C2.04109 17.0031 2.74913 17.2966 3.4875 17.2969H14.5125C15.2509 17.2966 15.9589 17.0031 16.481 16.481C17.0031 15.9589 17.2966 15.2509 17.2969 14.5125V3.4875C17.2966 2.74913 17.0031 2.04109 16.481 1.51898C15.9589 0.996872 15.2509 0.703423 14.5125 0.703125V0.703125ZM12.6039 9H11.7602V6.83663L6.83663 11.7602H9V12.6039H5.39606V9H6.23981V11.1634L11.1634 6.23981H9V5.39606H12.6039V9Z" fill="#6185EE"/>
</svg>
