<svg width="18" height="18" viewBox="0 0 18 18" fill="none" xmlns="http://www.w3.org/2000/svg">
  <path fill-rule="evenodd" clip-rule="evenodd" d="M8.60197 5.22678C8.65422 5.17439 8.7163 5.13283 8.78463 5.10448C8.85297 5.07612 8.92623 5.06152 9.00022 5.06152C9.07421 5.06152 9.14747 5.07612 9.21581 5.10448C9.28415 5.13283 9.34622 5.17439 9.39847 5.22678L16.1485 11.9768C16.2541 12.0824 16.3134 12.2257 16.3134 12.375C16.3134 12.5244 16.2541 12.6677 16.1485 12.7733C16.0428 12.8789 15.8996 12.9382 15.7502 12.9382C15.6008 12.9382 15.4576 12.8789 15.352 12.7733L9.00022 6.4204L2.64847 12.7733C2.54285 12.8789 2.39959 12.9382 2.25022 12.9382C2.10085 12.9382 1.95759 12.8789 1.85197 12.7733C1.74635 12.6677 1.68701 12.5244 1.68701 12.375C1.68701 12.2257 1.74635 12.0824 1.85197 11.9768L8.60197 5.22678Z" fill="#fff"/>
</svg>
