<svg width="25" height="25" viewBox="0 0 25 25" fill="none" xmlns="http://www.w3.org/2000/svg">
<path d="M13.2075 9.70755H11.2925V7.79245C11.2925 7.3535 10.939 7 10.5 7C10.061 7 9.70755 7.3535 9.70755 7.79245V9.70755H7.79245C7.3535 9.70755 7 10.061 7 10.5C7 10.939 7.3535 11.2925 7.79245 11.2925H9.70755V13.2075C9.70755 13.6465 10.061 14 10.5 14C10.939 14 11.2925 13.6465 11.2925 13.2075V11.2925H13.2075C13.6465 11.2925 14 10.939 14 10.5C14 10.061 13.6426 9.70755 13.2075 9.70755Z" fill="#5D5D64"/>
<path d="M10.5386 17.4253C6.74682 17.4253 3.67343 14.3508 3.67343 10.5528C3.67343 6.75473 6.74682 3.6803 10.5386 3.6803C14.3303 3.6803 17.3996 6.75882 17.3996 10.5528C17.3996 14.3468 14.3262 17.4253 10.5386 17.4253V17.4253ZM21.7546 20.6142L17.1302 15.9821C18.3424 14.5062 19.073 12.6133 19.073 10.5528C19.073 5.83077 15.2527 2 10.5345 2C5.81623 2 2 5.83077 2 10.5528C2 15.2748 5.82031 19.1056 10.5386 19.1056C12.5956 19.1056 14.4813 18.3779 15.9547 17.1636L20.5791 21.7957C20.7914 22.0124 21.4403 22.1187 21.7587 21.7957C22.0811 21.4686 22.0811 20.9412 21.7546 20.6142V20.6142Z" fill="#5D5D64"/>
</svg>
