<svg width="18" height="14" viewBox="0 0 18 14" fill="none" xmlns="http://www.w3.org/2000/svg">
<path d="M13.2156 11.2825L10.9887 9.05566C11.7109 7.86208 11.9711 6.44537 11.7202 5.07305C11.4692 3.70073 10.7245 2.46777 9.62667 1.60699C8.52881 0.746215 7.15378 0.317189 5.76122 0.400925C4.36866 0.484662 3.05495 1.07537 2.06815 2.0615C1.08134 3.04763 0.489748 4.36094 0.405066 5.75344C0.320383 7.14594 0.748475 8.52126 1.60851 9.61971C2.46854 10.7181 3.70099 11.4637 5.07314 11.7156C6.44529 11.9674 7.86217 11.7082 9.05625 10.9868L11.2831 13.2137C11.5392 13.4697 11.8865 13.6136 12.2487 13.6136C12.6108 13.6136 12.9582 13.4697 13.2143 13.2137C13.4703 12.9576 13.6142 12.6103 13.6142 12.2481C13.6142 11.8859 13.4703 11.5386 13.2143 11.2825H13.2156ZM8.3125 6.5606H6.5625V8.3106C6.5625 8.42663 6.51641 8.53791 6.43436 8.61996C6.35231 8.70201 6.24103 8.7481 6.125 8.7481C6.00897 8.7481 5.89769 8.70201 5.81564 8.61996C5.7336 8.53791 5.6875 8.42663 5.6875 8.3106V6.5606H3.9375C3.82147 6.5606 3.71019 6.51451 3.62814 6.43246C3.5461 6.35041 3.5 6.23913 3.5 6.1231C3.5 6.00707 3.5461 5.89579 3.62814 5.81374C3.71019 5.7317 3.82147 5.6856 3.9375 5.6856H5.6875V3.9356C5.6875 3.81957 5.7336 3.70829 5.81564 3.62624C5.89769 3.5442 6.00897 3.4981 6.125 3.4981C6.24103 3.4981 6.35231 3.5442 6.43436 3.62624C6.51641 3.70829 6.5625 3.81957 6.5625 3.9356V5.6856H8.3125C8.42853 5.6856 8.53981 5.7317 8.62186 5.81374C8.70391 5.89579 8.75 6.00707 8.75 6.1231C8.75 6.23913 8.70391 6.35041 8.62186 6.43246C8.53981 6.51451 8.42853 6.5606 8.3125 6.5606Z" fill="#5D5D64"/>
</svg>
