<svg width="20" height="24" viewBox="0 0 20 24" fill="none" xmlns="http://www.w3.org/2000/svg">
<path d="M13.062 9.03125C12.7753 9.03125 12.543 9.2636 12.543 9.55028V19.3599C12.543 19.6464 12.7753 19.8789 13.062 19.8789C13.3487 19.8789 13.581 19.6464 13.581 19.3599V9.55028C13.581 9.2636 13.3487 9.03125 13.062 9.03125Z" fill="#F26565" stroke="#F26565" stroke-width="0.3"/>
<path d="M6.93797 9.03125C6.65129 9.03125 6.41895 9.2636 6.41895 9.55028V19.3599C6.41895 19.6464 6.65129 19.8789 6.93797 19.8789C7.22465 19.8789 7.457 19.6464 7.457 19.3599V9.55028C7.457 9.2636 7.22465 9.03125 6.93797 9.03125Z" fill="#F26565" stroke="#F26565" stroke-width="0.3"/>
<path d="M2.47412 7.59799V20.3857C2.47412 21.1415 2.75127 21.8513 3.23543 22.3606C3.71735 22.8713 4.38803 23.1613 5.08993 23.1625H14.9101C15.6122 23.1613 16.2829 22.8713 16.7646 22.3606C17.2487 21.8513 17.5259 21.1415 17.5259 20.3857V7.59799C18.4883 7.34253 19.112 6.41274 18.9832 5.42517C18.8543 4.43781 18.0131 3.69921 17.0172 3.699H14.3598V3.05022C14.3629 2.50464 14.1471 1.98074 13.7609 1.59533C13.3747 1.21011 12.85 0.995608 12.3044 1.00007H7.6956C7.15002 0.995608 6.62532 1.21011 6.23909 1.59533C5.85286 1.98074 5.63714 2.50464 5.64018 3.05022V3.699H2.98281C1.98692 3.69921 1.14574 4.43781 1.01679 5.42517C0.888048 6.41274 1.51169 7.34253 2.47412 7.59799ZM14.9101 22.1244H5.08993C4.20252 22.1244 3.51217 21.3621 3.51217 20.3857V7.6436H16.4878V20.3857C16.4878 21.3621 15.7975 22.1244 14.9101 22.1244ZM6.67823 3.05022C6.67479 2.77996 6.78102 2.51984 6.97282 2.32906C7.16441 2.13828 7.42514 2.03346 7.6956 2.03812H12.3044C12.5749 2.03346 12.8356 2.13828 13.0272 2.32906C13.219 2.51964 13.3252 2.77996 13.3218 3.05022V3.699H6.67823V3.05022ZM2.98281 4.73706H17.0172C17.5332 4.73706 17.9514 5.15532 17.9514 5.6713C17.9514 6.18729 17.5332 6.60555 17.0172 6.60555H2.98281C2.46682 6.60555 2.04856 6.18729 2.04856 5.6713C2.04856 5.15532 2.46682 4.73706 2.98281 4.73706Z" fill="#F26565" stroke="#F26565" stroke-width="0.3"/>
<path d="M9.99998 9.03125C9.7133 9.03125 9.48096 9.2636 9.48096 9.55028V19.3599C9.48096 19.6464 9.7133 19.8789 9.99998 19.8789C10.2867 19.8789 10.519 19.6464 10.519 19.3599V9.55028C10.519 9.2636 10.2867 9.03125 9.99998 9.03125Z" fill="#F26565" stroke="#F26565" stroke-width="0.3"/>
</svg>
