<svg width="21" height="21" viewBox="0 0 21 21" fill="none" xmlns="http://www.w3.org/2000/svg">
<circle cx="10.5" cy="10.5" r="9.5" stroke="#6185EE" stroke-width="1.2" stroke-linecap="round" stroke-linejoin="round"/>
<path fill-rule="evenodd" clip-rule="evenodd" d="M5 10.3365C4.9999 10.2625 5.0144 10.1892 5.04267 10.1209C5.07094 10.0525 5.11241 9.99036 5.16473 9.93804C5.21704 9.88572 5.27917 9.84423 5.34754 9.81595C5.41591 9.78768 5.48919 9.77317 5.56318 9.77326L9.77373 9.7738L9.77268 5.56324C9.77268 5.48928 9.78724 5.41604 9.81554 5.34771C9.84384 5.27938 9.88532 5.21729 9.93762 5.16498C9.98991 5.11268 10.052 5.07119 10.1203 5.04288C10.1887 5.01458 10.2619 5 10.3359 5C10.4098 5 10.4831 5.01456 10.5514 5.04286C10.6197 5.07116 10.6818 5.11264 10.7341 5.16494C10.7864 5.21723 10.8279 5.27932 10.8562 5.34765C10.8845 5.41598 10.8991 5.48921 10.8991 5.56318L10.8986 9.77373L15.1091 9.77268C15.1831 9.77268 15.2563 9.78724 15.3247 9.81554C15.393 9.84384 15.4551 9.88532 15.5074 9.93762C15.5597 9.98991 15.6012 10.052 15.6295 10.1203C15.6578 10.1887 15.6724 10.2619 15.6724 10.3359C15.6724 10.4098 15.6578 10.4831 15.6295 10.5514C15.6012 10.6197 15.5597 10.6818 15.5074 10.7341C15.4551 10.7864 15.393 10.8279 15.3247 10.8562C15.2564 10.8845 15.1831 10.8991 15.1092 10.8991L10.8986 10.8986L10.8997 15.1091C10.8997 15.1831 10.8851 15.2563 10.8568 15.3247C10.8285 15.393 10.787 15.4551 10.7347 15.5074C10.6824 15.5597 10.6204 15.6012 10.552 15.6295C10.4837 15.6578 10.4105 15.6724 10.3365 15.6724C10.2625 15.6724 10.1893 15.6578 10.121 15.6295C10.0526 15.6012 9.99055 15.5597 9.93824 15.5074C9.88594 15.4551 9.84445 15.393 9.81614 15.3247C9.78784 15.2564 9.77326 15.1831 9.77326 15.1092L9.7738 10.8986L5.56325 10.8997C5.48926 10.8998 5.41598 10.8853 5.3476 10.857C5.27922 10.8287 5.2171 10.7873 5.16478 10.735C5.11246 10.6826 5.07097 10.6205 5.04269 10.5521C5.01442 10.4838 4.99991 10.4105 5 10.3365Z" fill="#6185EE"/>
</svg>
