<svg width="18" height="18" viewBox="0 0 18 18" fill="none" xmlns="http://www.w3.org/2000/svg">
<path d="M17.8883 8.72838L13.2944 4.13448C13.1516 3.99163 12.8988 3.99163 12.756 4.13448L11.76 5.13044C11.6112 5.2792 11.6112 5.52033 11.76 5.66908L15.0888 8.99751L11.7602 12.3265C11.6114 12.4753 11.6114 12.7164 11.7602 12.8652L12.7562 13.8611C12.8276 13.9325 12.9245 13.9729 13.0255 13.9729C13.1262 13.9729 13.2234 13.9325 13.2948 13.8611L17.8883 9.26741C18.0371 9.11846 18.0371 8.87714 17.8883 8.72838Z" fill="#FFFFFF"/>
<path d="M6.23969 12.3267L2.91145 8.99808L6.24026 5.66965C6.31169 5.59823 6.35187 5.50147 6.35187 5.40033C6.35187 5.29938 6.31188 5.20244 6.24026 5.13101L5.2443 4.13505C5.17288 4.06363 5.07593 4.02344 4.97498 4.02344C4.87403 4.02344 4.77708 4.06363 4.70566 4.13505L0.111567 8.72857C-0.0371889 8.87733 -0.0371889 9.11846 0.111567 9.26741L4.70547 13.8611C4.77689 13.9325 4.87384 13.9729 4.97479 13.9729C5.07574 13.9729 5.17269 13.9325 5.24411 13.8611L6.24007 12.8652C6.38883 12.7166 6.38883 12.4755 6.23969 12.3267Z" fill="#FFFFFF"/>
<path d="M11.6128 2.58962C11.5644 2.50086 11.4829 2.43496 11.3861 2.40639L10.5787 2.16811C10.3772 2.1083 10.165 2.22392 10.1056 2.42562L6.35737 15.119C6.3288 15.2159 6.33984 15.3201 6.38803 15.4087C6.43622 15.4976 6.51793 15.5634 6.61469 15.5921L7.42208 15.8304C7.45808 15.8411 7.49446 15.8462 7.53008 15.8462C7.69445 15.8462 7.84626 15.7388 7.89521 15.5729L11.6434 2.87932C11.672 2.78237 11.6611 2.67818 11.6128 2.58962Z" fill="#FFFFFF"/>
</svg>
