<svg width="32" height="32" viewBox="0 0 32 32" fill="none" xmlns="http://www.w3.org/2000/svg">
<path d="M21.0006 7.99647C22.1379 7.99647 23.0598 7.10183 23.0598 5.99823C23.0598 4.89464 22.1379 4 21.0006 4C19.8633 4 18.9414 4.89464 18.9414 5.99823C18.9414 7.10183 19.8633 7.99647 21.0006 7.99647Z" fill="#FECF73"/>
<path d="M11.3381 22.0611C10.6781 22.0611 10.0445 21.7537 9.67494 21.1901C9.04134 20.2934 9.27894 19.0637 10.2029 18.4489L20.3406 11.7625C21.2646 11.1477 22.5318 11.3782 23.1654 12.2749C23.799 13.1715 23.5614 14.4012 22.6374 15.016L12.4733 21.7281C12.1301 21.9586 11.7341 22.0611 11.3381 22.0611Z" fill="#6185EE"/>
<path d="M10.0182 15.219C9.35825 15.219 8.72464 14.9116 8.35504 14.348C7.72144 13.4513 7.95904 12.2216 8.88304 11.6068L13.9518 8.25078C14.8759 7.63594 16.1431 7.86651 16.7767 8.76315C17.4103 9.65979 17.1727 10.8895 16.2487 11.5043L11.1534 14.8603C10.8102 15.0909 10.4142 15.219 10.0182 15.219Z" fill="#73FEBB"/>
<path d="M15.087 27.0043C16.2243 27.0043 17.1462 26.1096 17.1462 25.006C17.1462 23.9024 16.2243 23.0078 15.087 23.0078C13.9498 23.0078 13.0278 23.9024 13.0278 25.006C13.0278 26.1096 13.9498 27.0043 15.087 27.0043Z" fill="#FE7373"/>
</svg>
