<svg width="18" height="19" viewBox="0 0 18 19" fill="none" xmlns="http://www.w3.org/2000/svg">
<g clip-path="url(#clip0_4265_23675)">
<path fill-rule="evenodd" clip-rule="evenodd" d="M3.9375 11.75C3.78832 11.75 3.64524 11.6907 3.53975 11.5852C3.43426 11.4798 3.375 11.3367 3.375 11.1875V2.1875C3.375 2.03832 3.43426 1.89524 3.53975 1.78975C3.64524 1.68426 3.78832 1.625 3.9375 1.625H14.0625C14.2117 1.625 14.3548 1.68426 14.4602 1.78975C14.5657 1.89524 14.625 2.03832 14.625 2.1875V11.1875C14.625 11.3367 14.5657 11.4798 14.4602 11.5852C14.3548 11.6907 14.2117 11.75 14.0625 11.75H11.8125C11.6633 11.75 11.5202 11.8093 11.4148 11.9148C11.3093 12.0202 11.25 12.1633 11.25 12.3125C11.25 12.4617 11.3093 12.6048 11.4148 12.7102C11.5202 12.8157 11.6633 12.875 11.8125 12.875H14.0625C14.5101 12.875 14.9393 12.6972 15.2557 12.3807C15.5722 12.0643 15.75 11.6351 15.75 11.1875V2.1875C15.75 1.73995 15.5722 1.31072 15.2557 0.994257C14.9393 0.67779 14.5101 0.5 14.0625 0.5L3.9375 0.5C3.48995 0.5 3.06072 0.67779 2.74426 0.994257C2.42779 1.31072 2.25 1.73995 2.25 2.1875V11.1875C2.25 11.6351 2.42779 12.0643 2.74426 12.3807C3.06072 12.6972 3.48995 12.875 3.9375 12.875H6.1875C6.33668 12.875 6.47976 12.8157 6.58525 12.7102C6.69074 12.6048 6.75 12.4617 6.75 12.3125C6.75 12.1633 6.69074 12.0202 6.58525 11.9148C6.47976 11.8093 6.33668 11.75 6.1875 11.75H3.9375Z" fill="white"/>
<path fill-rule="evenodd" clip-rule="evenodd" d="M8.60246 18.3358C8.65471 18.3881 8.71678 18.4297 8.78512 18.4581C8.85346 18.4864 8.92672 18.501 9.00071 18.501C9.0747 18.501 9.14796 18.4864 9.2163 18.4581C9.28464 18.4297 9.34671 18.3881 9.39896 18.3358L12.774 14.9608C12.8796 14.8551 12.9389 14.7119 12.9389 14.5625C12.9389 14.4131 12.8796 14.2699 12.774 14.1643C12.6683 14.0586 12.5251 13.9993 12.3757 13.9993C12.2263 13.9993 12.0831 14.0586 11.9775 14.1643L9.56321 16.5796V6.6875C9.56321 6.53832 9.50395 6.39524 9.39846 6.28975C9.29297 6.18426 9.1499 6.125 9.00071 6.125C8.85153 6.125 8.70845 6.18426 8.60296 6.28975C8.49747 6.39524 8.43821 6.53832 8.43821 6.6875V16.5796L6.02396 14.1643C5.91834 14.0586 5.77508 13.9993 5.62571 13.9993C5.47634 13.9993 5.33308 14.0586 5.22746 14.1643C5.12184 14.2699 5.0625 14.4131 5.0625 14.5625C5.0625 14.7119 5.12184 14.8551 5.22746 14.9608L8.60246 18.3358Z" fill="white"/>
</g>
<defs>
<clipPath id="clip0_4265_23675">
<rect width="18" height="18" fill="white" transform="translate(0 0.5)"/>
</clipPath>
</defs>
</svg>
