<svg width="18" height="18" viewBox="0 0 18 18" fill="none" xmlns="http://www.w3.org/2000/svg">
<circle cx="9" cy="9" r="8" fill="#6185EE"/>
<rect width="10.3529" height="8.47059" transform="translate(3.82324 4.76562)" fill="#6185EE"/>
<path d="M9.00023 1.94141C7.60413 1.94141 6.23938 2.3554 5.07856 3.13103C3.91774 3.90667 3.013 5.0091 2.47873 6.29893C1.94446 7.58877 1.80468 9.00806 2.07704 10.3773C2.34941 11.7466 3.0217 13.0044 4.00889 13.9916C4.99608 14.9788 6.25385 15.6511 7.62312 15.9234C8.9924 16.1958 10.4117 16.056 11.7015 15.5217C12.9914 14.9875 14.0938 14.0827 14.8694 12.9219C15.6451 11.7611 16.0591 10.3963 16.0591 9.00023C16.0591 7.12811 15.3154 5.33267 13.9916 4.00889C12.6678 2.6851 10.8723 1.94141 9.00023 1.94141V1.94141ZM12.0254 9.50443H9.50443V12.0254C9.50443 12.1592 9.45131 12.2874 9.35676 12.382C9.2622 12.4765 9.13395 12.5296 9.00023 12.5296C8.86651 12.5296 8.73826 12.4765 8.64371 12.382C8.54915 12.2874 8.49603 12.1592 8.49603 12.0254V9.50443H5.97502C5.8413 9.50443 5.71305 9.45131 5.6185 9.35675C5.52394 9.2622 5.47082 9.13395 5.47082 9.00023C5.47082 8.86651 5.52394 8.73826 5.6185 8.6437C5.71305 8.54915 5.8413 8.49603 5.97502 8.49603H8.49603V5.97502C8.49603 5.8413 8.54915 5.71305 8.64371 5.61849C8.73826 5.52394 8.86651 5.47082 9.00023 5.47082C9.13395 5.47082 9.2622 5.52394 9.35676 5.61849C9.45131 5.71305 9.50443 5.8413 9.50443 5.97502V8.49603H12.0254C12.1592 8.49603 12.2874 8.54915 12.382 8.6437C12.4765 8.73826 12.5296 8.86651 12.5296 9.00023C12.5296 9.13395 12.4765 9.2622 12.382 9.35675C12.2874 9.45131 12.1592 9.50443 12.0254 9.50443Z" fill="white"/>
</svg>
