<svg width="20" height="20" viewBox="0 0 20 20" fill="none" xmlns="http://www.w3.org/2000/svg">
<path fill-rule="evenodd" clip-rule="evenodd" d="M19 10C19 10.1894 18.9241 10.3711 18.7891 10.505C18.6541 10.6389 18.471 10.7142 18.28 10.7142L3.45939 10.7142L6.5511 13.7793C6.6863 13.9134 6.76226 14.0953 6.76226 14.2849C6.76226 14.4746 6.6863 14.6565 6.5511 14.7906C6.41591 14.9247 6.23254 15 6.04134 15C5.85014 15 5.66677 14.9247 5.53157 14.7906L1.21153 10.5056C1.14448 10.4393 1.09128 10.3605 1.05498 10.2737C1.01868 10.187 0.999999 10.0939 0.999999 10C0.999999 9.90606 1.01868 9.81305 1.05498 9.72629C1.09128 9.63952 1.14448 9.56072 1.21153 9.49438L5.53157 5.20943C5.66677 5.07533 5.85014 5 6.04134 5C6.23254 5 6.41591 5.07533 6.5511 5.20943C6.6863 5.34353 6.76226 5.52541 6.76226 5.71506C6.76226 5.9047 6.6863 6.08658 6.5511 6.22068L3.45939 9.28584L18.28 9.28584C18.471 9.28584 18.6541 9.36108 18.7891 9.49501C18.9241 9.62894 19 9.81059 19 10Z" fill="#6185EE"/>
</svg>
