<svg width="18" height="19" viewBox="0 0 18 19" fill="none" xmlns="http://www.w3.org/2000/svg">
<path d="M14.3985 16.8018H1.19988V3.6032H9.13105L10.3309 2.40332H1.19988C0.881649 2.40332 0.576456 2.52974 0.351435 2.75476C0.126415 2.97978 0 3.28497 0 3.6032V16.8018C0 17.1201 0.126415 17.4252 0.351435 17.6503C0.576456 17.8753 0.881649 18.0017 1.19988 18.0017H14.3985C14.7167 18.0017 15.0219 17.8753 15.2469 17.6503C15.472 17.4252 15.5984 17.1201 15.5984 16.8018V7.80276L14.3985 9.00264V16.8018Z" fill="#44444F"/>
<path d="M17.716 2.30563L15.6942 0.283842C15.6045 0.193869 15.4979 0.122485 15.3805 0.073778C15.2632 0.0250714 15.1374 0 15.0103 0C14.8832 0 14.7574 0.0250714 14.6401 0.073778C14.5227 0.122485 14.4161 0.193869 14.3264 0.283842L6.10122 8.55699L5.43529 11.4427C5.40692 11.5826 5.4099 11.727 5.44402 11.8656C5.47814 12.0042 5.54255 12.1335 5.63262 12.2442C5.72269 12.3549 5.83618 12.4443 5.96492 12.5059C6.09367 12.5675 6.23446 12.5999 6.37719 12.6006C6.45096 12.6087 6.5254 12.6087 6.59917 12.6006L9.50887 11.9586L17.716 3.67349C17.806 3.58376 17.8774 3.47717 17.9261 3.35981C17.9748 3.24245 17.9999 3.11663 17.9999 2.98956C17.9999 2.86249 17.9748 2.73668 17.9261 2.61932C17.8774 2.50196 17.806 2.39536 17.716 2.30563ZM8.88493 10.8487L6.68916 11.3347L7.19911 9.15692L13.3905 2.92357L15.0823 4.61539L8.88493 10.8487ZM15.7602 3.93746L14.0684 2.24564L14.9983 1.29774L16.7021 3.00156L15.7602 3.93746Z" fill="#44444F"/>
</svg>
