<svg width="22" height="23" viewBox="0 0 22 23" fill="none" xmlns="http://www.w3.org/2000/svg">
<path d="M13.0488 3.38444L11.4282 0.38775C11.2885 0.12923 11.041 0 10.7934 0C10.5459 0 10.2984 0.129289 10.1586 0.38775L8.53809 3.38444C9.27075 3.19154 10.0251 3.09388 10.7934 3.09388C11.5617 3.09382 12.3161 3.19154 13.0488 3.38444Z" fill="#44444F"/>
<path d="M13.0488 18.6156L11.4282 21.6122C11.2885 21.8708 11.041 22 10.7934 22C10.5459 22 10.2984 21.8707 10.1586 21.6122L8.53809 18.6156C9.27075 18.8085 10.0251 18.9061 10.7934 18.9061C11.5617 18.9062 12.3161 18.8085 13.0488 18.6156Z" fill="#44444F"/>
<path d="M0.333559 10.4233C-0.111186 10.6756 -0.111186 11.3166 0.333559 11.5689L2.91158 13.0312C2.74563 12.3701 2.66162 11.6894 2.66162 10.9961C2.66162 10.3027 2.74563 9.62207 2.91158 8.96094L0.333559 10.4233Z" fill="#44444F"/>
<path d="M21.6664 10.4233L19.0884 8.96094C19.2543 9.62207 19.3383 10.3028 19.3383 10.9961C19.3383 11.6894 19.2543 12.3701 19.0884 13.0312L21.6664 11.5689C22.1111 11.3166 22.1111 10.6755 21.6664 10.4233Z" fill="#44444F"/>
<path d="M18.3155 3.01562C18.2573 3.01562 18.1975 3.02348 18.1371 3.04016L15.2798 3.83006C15.8656 4.1808 16.4066 4.60267 16.8958 5.09206C17.385 5.58144 17.8067 6.12269 18.1573 6.70875L18.9468 3.85023C19.0663 3.41762 18.7321 3.01562 18.3155 3.01562Z" fill="#44444F"/>
<path d="M3.68422 18.9705C3.74239 18.9705 3.80223 18.9626 3.86258 18.946L6.7199 18.1561C6.13409 17.8054 5.59307 17.3834 5.10388 16.894C4.6147 16.4046 4.19301 15.8634 3.84241 15.2773L3.05285 18.1359C2.93336 18.5684 3.26754 18.9705 3.68422 18.9705Z" fill="#44444F"/>
<path d="M3.68421 3.01562C3.26759 3.01562 2.93336 3.41762 3.05284 3.85023L3.70778 6.22134L3.84236 6.7087C3.95723 6.51668 4.07966 6.32937 4.20978 6.14718C4.47667 5.77347 4.77497 5.42105 5.10388 5.092C5.59312 4.60256 6.13409 4.18075 6.71991 3.83001L3.86258 3.04011C3.80223 3.02348 3.74239 3.01562 3.68421 3.01562Z" fill="#44444F"/>
<path d="M18.3155 18.9705C18.7321 18.9705 19.0663 18.5684 18.9468 18.1359L18.1573 15.2773C17.8067 15.8634 17.385 16.4047 16.8958 16.894C16.4066 17.3835 15.8656 17.8053 15.2798 18.1561L18.1371 18.946C18.1975 18.9627 18.2573 18.9705 18.3155 18.9705Z" fill="#44444F"/>
<path d="M7.60162 3.59355C7.46275 3.65889 7.32585 3.72757 7.19142 3.80035C7.06385 3.86939 6.93841 3.94176 6.81505 4.01725C6.46739 4.23 6.13708 4.46817 5.8262 4.7289C5.45744 5.03818 5.11641 5.37936 4.80725 5.74827C4.54669 6.05929 4.30862 6.38973 4.09591 6.73754C4.03855 6.83137 3.98327 6.92664 3.92966 7.02289C3.8384 7.18667 3.75257 7.35392 3.6725 7.52445C3.56637 7.75034 3.47005 7.98171 3.38456 8.21833C3.28368 8.49757 3.19779 8.7839 3.12729 9.07629C3.03315 9.46694 2.96715 9.8685 2.93135 10.2788C2.9106 10.5162 2.89941 10.7565 2.89941 10.9993C2.89941 11.2423 2.9106 11.4824 2.93135 11.7199C2.96715 12.1302 3.03321 12.5318 3.12729 12.9224C3.19773 13.2149 3.28362 13.5012 3.38456 13.7804C3.47005 14.017 3.56637 14.2484 3.6725 14.4742C3.79966 14.745 3.94095 15.0076 4.09596 15.2611C4.30862 15.6089 4.54669 15.9394 4.80731 16.2504C5.11646 16.6193 5.45749 16.9605 5.82625 17.2697C6.13714 17.5304 6.46744 17.7686 6.8151 17.9814C7.06851 18.1365 7.33109 18.2778 7.60168 18.405C7.82742 18.5112 8.05869 18.6075 8.29516 18.6931C8.57428 18.794 8.86054 18.88 9.15281 18.9505C9.5433 19.0446 9.94468 19.1107 10.3548 19.1465C10.5922 19.1672 10.8323 19.1784 11.0751 19.1784C11.3178 19.1784 11.558 19.1672 11.7954 19.1464C12.2055 19.1106 12.6068 19.0446 12.9973 18.9504C13.2896 18.8799 13.5758 18.794 13.855 18.693C14.0914 18.6075 14.3227 18.5112 14.5484 18.405C14.819 18.2778 15.0817 18.1364 15.335 17.9813C15.6827 17.7686 16.013 17.5304 16.3239 17.2697C16.6926 16.9604 17.0337 16.6192 17.3428 16.2503C17.6034 15.9393 17.8415 15.6088 18.0541 15.261C18.2091 15.0075 18.3504 14.7448 18.4776 14.4741C18.5837 14.2483 18.68 14.0169 18.7656 13.7804C18.8664 13.5011 18.9524 13.2147 19.0228 12.9224C19.117 12.5317 19.183 12.1301 19.2188 11.7199C19.2395 11.4824 19.2507 11.2422 19.2507 10.9993C19.2507 10.7564 19.2395 10.5162 19.2188 10.2788C19.1829 9.8685 19.1169 9.467 19.0228 9.07635C18.9524 8.7839 18.8665 8.49757 18.7656 8.21833C18.6801 7.98177 18.5837 7.7504 18.4776 7.52456C18.3504 7.25386 18.2092 6.99117 18.0541 6.73772C17.8415 6.38991 17.6034 6.0594 17.3428 5.74839C17.0337 5.37947 16.6926 5.0383 16.3239 4.72901C16.013 4.46829 15.6827 4.23017 15.335 4.01737C15.0816 3.86229 14.819 3.72094 14.5484 3.59372C14.3227 3.48755 14.0914 3.39124 13.855 3.30566C13.5758 3.20474 13.2896 3.11875 12.9973 3.04828C12.6068 2.95411 12.2055 2.88807 11.7954 2.85226C11.558 2.8315 11.3179 2.82031 11.0751 2.82031C10.8323 2.82031 10.5922 2.8315 10.3548 2.85226C9.94468 2.88807 9.5433 2.95416 9.15281 3.04828C8.86049 3.11875 8.57428 3.20468 8.29516 3.30566C8.05858 3.39113 7.82736 3.48744 7.60162 3.59355Z" fill="white"/>
<mask id="mask0" style="mask-type:alpha" maskUnits="userSpaceOnUse" x="2" y="2" width="9" height="18">
<rect x="2.33594" y="2.82031" width="8.45756" height="16.3581" fill="#C4C4C4"/>
</mask>
<g mask="url(#mask0)">
<path d="M7.03815 3.59355C6.89928 3.65889 6.76237 3.72757 6.62794 3.80035C6.50037 3.86939 6.37493 3.94176 6.25157 4.01725C5.90391 4.23 5.5736 4.46817 5.26272 4.7289C4.89396 5.03818 4.55293 5.37936 4.24378 5.74827C3.98322 6.05929 3.74514 6.38973 3.53243 6.73754C3.47507 6.83137 3.41979 6.92664 3.36618 7.02289C3.27493 7.18667 3.18909 7.35392 3.10902 7.52445C3.0029 7.75034 2.90657 7.98171 2.82108 8.21833C2.7202 8.49757 2.63431 8.7839 2.56381 9.07629C2.46967 9.46694 2.40367 9.8685 2.36787 10.2788C2.34712 10.5162 2.33594 10.7565 2.33594 10.9993C2.33594 11.2423 2.34712 11.4824 2.36787 11.7199C2.40367 12.1302 2.46973 12.5318 2.56381 12.9224C2.63425 13.2149 2.72015 13.5012 2.82108 13.7804C2.90657 14.017 3.0029 14.2484 3.10902 14.4742C3.23619 14.745 3.37748 15.0076 3.53249 15.2611C3.74514 15.6089 3.98322 15.9394 4.24383 16.2504C4.55299 16.6193 4.89402 16.9605 5.26278 17.2697C5.57366 17.5304 5.90397 17.7686 6.25163 17.9814C6.50504 18.1365 6.76762 18.2778 7.0382 18.405C7.26394 18.5112 7.49522 18.6075 7.73168 18.6931C8.0108 18.794 8.29707 18.88 8.58933 18.9505C8.97982 19.0446 9.38121 19.1107 9.7913 19.1465C10.0287 19.1672 10.2688 19.1784 10.5116 19.1784C10.7543 19.1784 10.9945 19.1672 11.2319 19.1464C11.642 19.1106 12.0433 19.0446 12.4338 18.9504C12.7261 18.8799 13.0124 18.794 13.2915 18.693C13.5279 18.6075 13.7592 18.5112 13.985 18.405C14.2555 18.2778 14.5182 18.1364 14.7715 17.9813C15.1192 17.7686 15.4495 17.5304 15.7604 17.2697C16.1291 16.9604 16.4702 16.6192 16.7793 16.2503C17.0399 15.9393 17.278 15.6088 17.4907 15.261C17.6456 15.0075 17.7869 14.7448 17.9141 14.4741C18.0203 14.2483 18.1165 14.0169 18.2021 13.7804C18.303 13.5011 18.3889 13.2147 18.4593 12.9224C18.5535 12.5317 18.6195 12.1301 18.6553 11.7199C18.676 11.4824 18.6872 11.2422 18.6872 10.9993C18.6872 10.7564 18.676 10.5162 18.6553 10.2788C18.6194 9.8685 18.5534 9.467 18.4593 9.07635C18.3889 8.7839 18.303 8.49757 18.2021 8.21833C18.1166 7.98177 18.0203 7.7504 17.9141 7.52456C17.787 7.25386 17.6457 6.99117 17.4907 6.73772C17.278 6.38991 17.0399 6.0594 16.7793 5.74839C16.4702 5.37947 16.1291 5.0383 15.7604 4.72901C15.4495 4.46829 15.1192 4.23017 14.7715 4.01737C14.5181 3.86229 14.2555 3.72094 13.985 3.59372C13.7592 3.48755 13.5279 3.39124 13.2915 3.30566C13.0124 3.20474 12.7261 3.11875 12.4338 3.04828C12.0433 2.95411 11.642 2.88807 11.2319 2.85226C10.9945 2.8315 10.7544 2.82031 10.5116 2.82031C10.2688 2.82031 10.0287 2.8315 9.7913 2.85226C9.38121 2.88807 8.97982 2.95416 8.58933 3.04828C8.29701 3.11875 8.0108 3.20468 7.73168 3.30566C7.4951 3.39113 7.26389 3.48744 7.03815 3.59355Z" fill="#44444F"/>
</g>
</svg>
